<svg id="Layer_1" data-name="Layer 1" xmlns="http://www.w3.org/2000/svg" viewBox="0 0 628.12 215.84"><defs><style>.cls-1{fill:#fff;}.cls-2{fill:#e91e63;}.cls-3{fill:#03a9f4;}.cls-4{fill:#0288d1;}.cls-5{fill:#c2185b;}</style></defs><title>Artboard 1</title><path class="cls-1" d="M318.12,118.38a17.74,17.74,0,0,1-3.47,10.9,26.72,26.72,0,0,1-8.8,7.54,45.05,45.05,0,0,1-13.71,4.5,94.48,94.48,0,0,1-16.46,1.44q-5.56.08-10-.15t-6.06-.23l-1.82-16.76,5.79.27q4,.19,8.83.19c1.68,0,3.58-.09,5.72-.27a29.88,29.88,0,0,0,6-1.1c2.79-.76,4.63-1.72,5.52-2.86a6.32,6.32,0,0,0,1.33-4,4.81,4.81,0,0,0-1.48-3.58,22.28,22.28,0,0,0-4.69-3.2,67.94,67.94,0,0,0-6.7-3.35,65.77,65.77,0,0,1-7.39-3.81,21.89,21.89,0,0,1-7.81-7.58,19,19,0,0,1-2.55-9.72,17.88,17.88,0,0,1,3.27-10.47,25.38,25.38,0,0,1,10-8,43.85,43.85,0,0,1,12.92-3.74,117.66,117.66,0,0,1,14-1.21q5.48-.07,9.14,0c2.44.08,4.06.12,4.87.12l2,16.83c-.77,0-2.2-.06-4.31-.19s-4.74-.19-7.88-.19a43.08,43.08,0,0,0-6.18.42A31,31,0,0,0,293,81.43a10.08,10.08,0,0,0-4.3,2.56,4.87,4.87,0,0,0,.38,7.2,21.38,21.38,0,0,0,4.69,3q2.81,1.53,7,3.51t6.67,3.43a24.33,24.33,0,0,1,8,7.35A17.68,17.68,0,0,1,318.12,118.38Z"/><path class="cls-1" d="M392.47,124.1l-2.28,18.43h-4.27a97.13,97.13,0,0,1-22.82-2.36,62.19,62.19,0,0,1-17.25-6.85,37.13,37.13,0,0,1-13.37-12.92,33.25,33.25,0,0,1-4.77-17.56A31.39,31.39,0,0,1,332.25,86,38.21,38.21,0,0,1,344.4,73.82a58.4,58.4,0,0,1,18.28-7.7,97,97,0,0,1,23.24-2.59h3.43L391.41,82h-2.9a88.89,88.89,0,0,0-11.12.69,55.69,55.69,0,0,0-10.74,2.44,23.51,23.51,0,0,0-10.78,7,16,16,0,0,0-4,10.59,16.23,16.23,0,0,0,3.84,11A25.17,25.17,0,0,0,366,120.67a46,46,0,0,0,10.93,2.63,89.23,89.23,0,0,0,11,.8h4.57Z"/><path class="cls-1" d="M482.75,141.85H459.36q0-3.12.12-14.67t.11-15.65q0-3.81-.07-8.76c-.06-3.31-.08-6.15-.08-8.54q-.15-7.31-2.48-10.32c-1.55-2-4.17-3-7.88-3a25.85,25.85,0,0,0-8.73,1.87,64,64,0,0,0-9.94,4.68l.23,54.4H407.25q0-5.49.12-22.06t.11-36.38q0-10.35-.08-23.88t-.15-29.37h23.39l-.3,41,.15.07a88.08,88.08,0,0,1,15.16-6.51,46.55,46.55,0,0,1,14.09-2.63q10.51,0,16.73,6.52t6.21,17.56q0,9.21-.12,15.35t-.11,10.32q0,7.1.11,16.46C482.64,134.53,482.7,139.06,482.75,141.85Z"/><path class="cls-1" d="M628.12,141.85H604.73c0-2.24.1-5.75.15-10.55s.08-10.12.08-16c0-2.29,0-5.77,0-10.44s-.07-8.28-.12-10.82q-.15-7.32-2.58-10.25t-7.67-2.93a24.61,24.61,0,0,0-7.75,1.45,50.48,50.48,0,0,0-9.12,4.19v3.81c0,3.91,0,7.84-.08,11.81s-.07,7.49-.07,10.59q0,9.9.15,18.2t.15,10.9H554.44q0-2,.12-9t.11-17.33q0-3.73,0-10.71t-.11-10.55a46.2,46.2,0,0,0-.42-5A11.89,11.89,0,0,0,552.77,85a7.77,7.77,0,0,0-2.92-3.08,11.13,11.13,0,0,0-5.43-1,20.93,20.93,0,0,0-7.91,1.83,76.76,76.76,0,0,0-9.11,4.57q0,.77-.08,9.41t-.07,13.52q0,8.16.15,18.44t.15,13.18H504.16q0-3.73.11-12.61t.12-25q0-6.54,0-16.91t-.19-23.24h22.93L527,71.61l.15.07a82,82,0,0,1,12.6-6.25,39.12,39.12,0,0,1,14.74-3.35,24.72,24.72,0,0,1,12.11,2.78,19.4,19.4,0,0,1,7.62,7.28h.15a81.82,81.82,0,0,1,15.18-7.09,46,46,0,0,1,15.11-3q11,0,17.12,6.52T628,85.7q0,8.76-.07,14.44c0,3.78-.08,7.48-.08,11.08q0,10.36.15,18.78C628.06,135.61,628.12,139.56,628.12,141.85Z"/><path class="cls-2" d="M0,0V143H18.2V90.82H63l-.8,11.47c0,.5-.08,1-.08,1.5a26,26,0,1,0,52,0c0-.51,0-1-.08-1.5l-.8-11.47H156V143h62.15V0Z"/><path class="cls-3" d="M145.63,101.22H124.41c.06.85.13,1.7.13,2.57a36.4,36.4,0,1,1-72.79,0c0-.87.07-1.72.13-2.57H28.61v76.72H63a26,26,0,0,0,23.09,37.9h0a26,26,0,0,0,23.1-37.9h36.4Z"/><path class="cls-4" d="M145.63,101.22,122.17,116.6a36.43,36.43,0,0,1-34,23.59c-.61,0-1.2-.06-1.81-.09L28.61,177.94H63a26,26,0,0,0,23.09,37.9h0a26,26,0,0,0,23.1-37.9h36.4Z"/><polygon class="cls-5" points="0 143.03 18.2 143.03 18.2 131.11 0 143.03"/><path class="cls-5" d="M62.23,102.28h0c0,.5-.08,1-.08,1.5a26,26,0,1,0,52,0c0-.51,0-1-.08-1.5l-.8-11.47H156V143h62.15V.17Z"/></svg>